#!OML:ASF F:\VICON\USERDATA\INSTALL\rory3\rory3.ASF
:FULLY-SPECIFIED
:DEGREES
1231
root 6.88134 18.408 -1.1585 -190.654 38.47 179.909
lowerback 1.162 -0.717187 -1.50421
upperback -0.192083 -0.97316 -1.32902
thorax -0.845759 -0.47532 -0.499462
lowerneck -12.8844 -0.255945 -5.19485
upperneck 31.9476 2.2457 1.6407
head 12.6996 1.23635 2.0095
rclavicle -6.52014e-014 -1.63003e-014
rhumerus 41.6248 -22.7994 -1.44942
rradius 43.1054
rwrist 37.2208
rhand -48.0268 6.07926
rfingers 7.12502
rthumb -20.6942 -22.8374
lclavicle -6.52014e-014 -1.63003e-014
lhumerus 44.434 -17.7856 23.581
lradius 49.4407
lwrist -31.8066
lhand -44.1613 12.6397
lfingers 7.12502
lthumb -16.9765 41.9179
rfemur 4.25987 23.2246 20.3407
rtibia 27.4876
rfoot -20.3202 -1.6032
rtoes -3.52442
lfemur 5.38597 -10.7394 -9.95366
ltibia 31.9577
lfoot -11.5917 1.50795
ltoes -11.2072
1232
root 6.84119 18.4115 -1.19066 -190.285 38.6929 180.1
lowerback 1.29428 -0.72241 -1.49757
upperback -0.220755 -0.985215 -1.20223
thorax -0.94714 -0.481556 -0.371099
lowerneck -12.673 -0.140491 -5.16196
upperneck 32.0297 2.4999 1.43417
head 12.6841 1.33692 1.96126
rclavicle 6.47044e-014 4.13472e-014
rhumerus 40.059 -24.8422 -1.69798
rradius 39.652
rwrist 36.3989
rhand -45.5537 6.72457
rfingers 7.12502
rthumb -18.3164 -22.4331
lclavicle 6.47044e-014 4.13472e-014
lhumerus 42.4229 -14.5079 23.5041
lradius 47.4233
lwrist -29.6462
lhand -41.0045 14.103
lfingers 7.12502
lthumb -13.936 43.6159
rfemur 3.92061 23.2413 20.1682
rtibia 27.4087
rfoot -20.2384 -1.35296
rtoes -3.6025
lfemur 5.43318 -11.1374 -9.99845
ltibia 31.6046
lfoot -11.9767 1.53699
ltoes -11.2935
1233
root 6.8005 18.4135 -1.22046 -189.905 38.9655 180.307
lowerback 1.44323 -0.673806 -1.47477
upperback -0.212521 -0.924196 -1.10741
thorax -1.02127 -0.451303 -0.286181
lowerneck -12.3452 -0.0107645 -5.29745
upperneck 31.9008 2.69076 1.51147
head 12.5504 1.42403 2.03254
rclavicle -5.64548e-014 1.03368e-014
rhumerus 38.5016 -27.3096 -2.19976
rradius 36.2911
rwrist 35.49
rhand -42.3029 5.95523
rfingers 7.12502
rthumb -15.1869 -23.4674
lclavicle -5.64548e-014 1.03368e-014
lhumerus 40.5979 -11.2116 23.0812
lradius 45.5181
lwrist -26.8586
lhand -38.398 15.3621
lfingers 7.12502
lthumb -11.4231 45.0309
rfemur 3.60204 23.4183 20.0593
rtibia 27.3069
rfoot -20.1341 -1.21469
rtoes -3.54778
lfemur 5.52183 -11.3237 -9.98997
ltibia 31.2021
lfoot -12.1723 1.60961
ltoes -12.5527
1234
root 6.76015 18.4159 -1.25558 -189.784 39.2538 180.177
lowerback 1.57563 -0.570694 -1.66312
upperback -0.187091 -0.792127 -1.10028
thorax -1.06756 -0.38365 -0.175167
lowerneck -12.0621 -0.0185098 -5.69516
upperneck 31.8686 2.6667 1.86617
head 12.4665 1.41962 2.22883
rclavicle -8.77634e-014 2.38542e-015
rhumerus 36.9865 -30.1223 -2.88196
rradius 33.0423
rwrist 33.7586
rhand -40.7697 4.18263
rfingers 7.12502
rthumb -13.7097 -25.3458
lclavicle -8.77634e-014 2.38542e-015
lhumerus 38.9181 -7.91232 22.528
lradius 43.552
lwrist -23.8208
lhand -37.0424 16.1005
lfingers 7.12502
lthumb -10.1155 45.8373
rfemur 3.39192 23.664 19.6834
rtibia 27.1602
rfoot -20.0661 -1.13528
rtoes -3.68285
lfemur 5.69775 -11.4385 -10.3275
ltibia 30.7873
lfoot -12.4349 1.74381
ltoes -12.6395
1235
root 6.72085 18.4204 -1.29258 -189.559 39.5019 180.178
lowerback 1.71546 -0.516441 -1.77619
upperback -0.169581 -0.72497 -1.07415
thorax -1.1269 -0.348962 -0.0854539
lowerneck -12.1977 -0.279321 -6.0636
upperneck 32.2871 2.34942 2.14645
head 12.6766 1.27284 2.37484
rclavicle -6.69904e-014 4.77083e-015
rhumerus 35.5097 -33.1683 -3.68336
rradius 30.0895
rwrist 30.6832
rhand -39.1998 2.18813
rfingers 7.12502
rthumb -12.1963 -27.4363
lclavicle -6.69904e-014 4.77083e-015
lhumerus 37.2053 -4.44954 21.9804
lradius 41.5624
lwrist -20.7109
lhand -35.2735 16.6706
lfingers 7.12502
lthumb -8.40873 46.4833
rfemur 3.17646 23.8454 19.4026
rtibia 26.9956
rfoot -20.0098 -1.06878
rtoes -3.90429
lfemur 5.85562 -11.6405 -10.5536
ltibia 30.3332
lfoot -12.8136 1.83488
ltoes -11.4048
1236
root 6.6815 18.4304 -1.32728 -189.134 39.684 180.395
lowerback 1.87891 -0.513217 -1.74429
upperback -0.142745 -0.723926 -1.04383
thorax -1.19107 -0.348441 -0.0708255
lowerneck -11.962 -0.0386742 -5.68584
upperneck 32.1293 2.69379 1.83126
head 12.5539 1.43619 2.22619
rclavicle 6.90777e-014 -2.06736e-014
rhumerus 34.4691 -36.9775 -5.19376
rradius 27.372
rwrist 26.9373
rhand -37.9571 0.276233
rfingers 7.12502
rthumb -10.9979 -29.4157
lclavicle 6.90777e-014 -2.06736e-014
lhumerus 35.5415 -0.843002 21.3287
lradius 39.4762
lwrist -17.6473
lhand -33.5643 17.4337
lfingers 7.12502
lthumb -6.759 47.3058
rfemur 2.90315 23.9491 19.2694
rtibia 26.8188
rfoot -19.9465 -0.985067
rtoes -4.02223
lfemur 5.90316 -11.7415 -10.5159
ltibia 29.8377
lfoot -13.0761 1.82462
ltoes -10.948
